# xmcd CD database file
#
# Track frame offsets:
#	150
#	10820
#	24142
#	36755
#	50940
#	63120
#	74807
#	91082
#	106542
#	123957
#	135920
#	146705
#	161435
#	172220
#	185097
#	197937
#	209547
#	224617
#	238465
#	249680
#
# Disc length: 3590 seconds
#
# Revision: 7
# Processed by: cddbd v1.5.2PL0 Copyright (c) Steve Scherf et al.
# Submitted via: CDex 2.09
#
DISCID=2f0e0414
DTITLE=Kenny Rogers - Me And Bobby McGee
DYEAR=1994
DGENRE=Country
TTITLE0=Ticket To Nowhere
TTITLE1=Ruby Don't Take Your Love To Town
TTITLE2=Ruben James
TTITLE3=Loser
TTITLE4=I Just Want To Give My Love To You
TTITLE5=Me And Bobby McGee
TTITLE6=The Way It Used To Be
TTITLE7=For The Good Times
TTITLE8=Something's Burning
TTITLE9=Hurry Up Love
TTITLE10=We All Got To Help Each Other
TTITLE11=Church Without A Name
TTITLE12=She Even Woke Me Up To Say Goodbye
TTITLE13=Run Thru Your Mind
TTITLE14=Sleep Comes Easy
TTITLE15=Calico Silver
TTITLE16=Tell It All Brother
TTITLE17=I'm Going To Sing You A Sad Song Suzie
TTITLE18=Always Leaving Always Gone
TTITLE19=Lay It Down
EXTD=YEAR: 1994
EXTT0=
EXTT1=
EXTT2=
EXTT3=
EXTT4=
EXTT5=
EXTT6=
EXTT7=
EXTT8=
EXTT9=
EXTT10=
EXTT11=
EXTT12=
EXTT13=
EXTT14=
EXTT15=
EXTT16=
EXTT17=
EXTT18=
EXTT19=
PLAYORDER=
